/* XPM */
static char * icon_xpm[] = {
"37 37 2 1",
" 	c None",
".	c #373736",
"                                     ",
"                                     ",
"                                     ",
"                                     ",
"                                     ",
"                                     ",
"                 ....                ",
"              ..........             ",
"             ............            ",
"            ..............           ",
"           .....       ....          ",
"          ....          ....         ",
"          ....           ...         ",
"       ........          ....        ",
"      ...........         ...        ",
"     ..............       ...        ",
"    .....    ......       ...        ",
"   ....        ...        ......     ",
"   ....                  .........   ",
"   ...                ............   ",
"   ...                .......  ....  ",
"   ...                ......    ...  ",
"   ...               .......    ...  ",
"   ....              .......    ...  ",
"    ....             .......    ...  ",
"    .....            ......    ....  ",
"     .............................   ",
"      ...........................    ",
"        ........................     ",
"                                     ",
"                                     ",
"                                     ",
"                                     ",
"                                     ",
"                                     ",
"                                     ",
"                                     "};
